<svg xmlns="http://www.w3.org/2000/svg" viewBox="0 0 2048 2048" width="512" height="512"><path transform="translate(129,152)" d="m0 0h61l5 3 13 2 9 3 6 3 8 2 8 6 12 6 8 6 6 4 7 6 7 8 8 8 3 6 9 11 9 17 7 14 2 13 3 7 1 10 3 5v15l3 1 1 3v13l15-2 2-2 21-1 6-2 5-1 17-1 6-2 5-1 21-1 6-2 5-1 17-1 6-2 5-1 17-1 6-2 5-1 30-2 2-2 32-1 10-1 2-2 28-1 10-1 4-2 27-1 9-1 2-2 41-1 9-1 2-2 58-1 8-1 2-2 71-1 1-3h370l2 2 10 1 56 1 5 3 63 1 1 3 51 1 1 3 39 1 1 3 39 1 1 3 39 1 1 3 35 1 1 3 31 1 1 3 27 1 1 3 27 1 1 3 31 1 1 3 25 1 3 1v2h16v-8l3-7 1-17 3-6 2-8 2-5 1-9 3-5 3-7 8-16 6-10 3-4 3-5 4-5h2l2-4 18-18 10-7 11-7 16-8 5-3 9-2 3-2 9-2 2-2 25-1 3-3h9l3 3 34 1 1 3 13 1 19 9 19 10 6 4 8 7 8 5 14 14 3 6 9 11 7 13 5 7 3 10 7 21 3 3v75l-3 1-1 19-2 5-2 7v9l-1 7-2 3-1 14-3 5-1 19-1 4h-2l-1 20-1 4-2 1-1 20-1 3-2 1-1 19-3 5-1 19-3 5-1 19-1 4-2 1-1 19-1 4-2 1-1 19-1 4-2 1-1 16-3 4-1 19-1 4-2 1-1 19-1 4-2 1-1 19-1 4-2 1-1 19-1 4-2 1-1 19-1 4-2 1-1 19-1 4-2 1-1 19-1 4h-2l-1 20-1 4h-2l-1 20-1 4h-2l-1 16-1 4-2 1-1 19-1 4h-2l-1 20-1 4h-2l-1 20-1 4h-2l-1 20-1 4h-2l-1 20-1 4h-2l-1 20-1 4h-2l-1 20-1 4h-2l-1 20-1 4h-2l-1 16-1 4h-2l-1 20-1 4h-2l-1 20-1 4h-2l-1 20-1 4h-2l-1 20-1 4h-2l-1 20-1 4h-2l-1 20-1 4h-2l-1 20-1 4h-2l-1 20-1 4h-2l-1 20-1 4h-2l-1 16-1 4-2 1-1 19-1 4h-2l-1 20-1 4h-2l-1 20-1 4h-2l-1 20-1 4h-2l-1 20-1 4h-2l-1 20-1 4h-2l-1 20-1 4h-2l-1 20-1 4h-2l-1 16-1 4h-2l-1 20-1 4h-2l-1 20-1 4h-2l-1 20-1 4h-2l-1 20-1 4h-2l-1 20-1 4h-2l-1 20-1 4h-2l-1 20-1 4h-2l-1 20-1 4h-2l-1 19-1 5h-2l-1 16-3 6-1 18-1 4h-2l-1 22-1 2h-2l-1 13-1 3h-2l-1 9-8 16-7 8-5 6-8 7-5 5-19 9-7 1-2 2-6 1h-33l-12-1-4-2-18-2-15-3-73-12-28-5-15-5-6-3-7-6-6-3-15-15-6-10-5-8-6-16v-51l3-4 1-19 3-5 1-19 3-6 1-18 3-6 1-18 3-6 1-14 3-6 1-18 3-6 1-18 3-6 1-18 3-6 1-18 3-6 1-18 3-6 1-18 3-6 1-18 3-6 1-18 3-6 1-18 3-6 1-14 3-6 1-18 3-6 1-18 3-6 1-18 3-6 1-18 3-6 1-18 3-6 1-18 3-6 1-18 3-6 1-18 3-6 1-18 3-6 1-13 3-8 1-16 3-8 1-15 3-9 1-16h-9l-7-1-1-1-7-1-28-2-2-2-30-2-2-2-24-1-10-1-2-2-28-1-10-1-2-2-40-1-10-1-1-3h-37l-10-1-1-3h-66l-2-4h-68l-11-1-1-2h-310l-3 3-77 1-3 3-65 1-3 3h-14l-31 1-3 3h-14l-31 1-1 2-36 2h-8v2l-24 2h-8v2l-28 2h-8v2l-34 2-3 2-7 1h-8l1 14 2 2 1 4v19l3 1 1 6v17l3 1 1 6 1 17 2 1 1 6 1 17 2 1 1 6 1 17 2 2 2 18 2 1 1 6 1 17 2 1 1 6 1 17 2 1 1 6 1 17 2 1 1 6 1 17 2 1 1 6 1 17 2 1 1 6 1 17 2 1 1 6 1 17 2 1 1 6 1 17 2 1 1 6 1 17 2 2 2 18 2 1 1 6 1 17 2 1 1 6 1 17 2 1 1 6 1 17 2 1 1 6 1 17 2 1 1 6 1 17 2 1 1 6 1 17 2 1 1 6 1 17 2 1 1 6 1 17 2 2 2 18 2 1 1 6v17l3 1 1 6 1 17 2 1 1 3v49l-3 6-2 9-9 17-7 8h-2l-1 3-8 7-5 5-23 11-20 4-1 1-16 2-4 2-20 2-4 2-21 2-3 2-21 2-3 2-22 2-2 2-26 2-2 2h-11l-1-2-21-1-4-3-7-3-15-8-27-27-3-11-6-12-2-11-2-5-1-18-3-5-1-17-3-7-1-17-3-7-1-17-3-7-1-17-3-7-1-17-3-7-1-17-3-7-1-17-3-7-2-16-2-4-1-17-3-7-1-17-3-7-1-17-3-7-1-17-3-7-1-17-3-7-1-17-3-7-1-17-3-7-1-17-3-7-2-16-2-4-1-17-3-7-1-17-3-7-1-15-3-9-1-15-3-9-1-15-3-9-1-15-3-9-1-15-3-9-1-15-3-9-1-15-3-9-2-16-2-4-1-15-3-9-1-15-3-9-1-15-3-9-1-15-3-9-1-15-3-9-1-15-3-9-2-20-2-4-1-15-3-9-1-15-3-9-2-16-2-4-2-20-2-4-2-20-2-4-2-20-2-4-1-15-3-9-1-15-3-9-1-15-3-9-1-15-3-9-1-15-3-9-1-15-3-9-2-16-2-4-2-20-2-4-2-20-2-4-1-15-3-9-1-17-3-7-1-17-3-7-1-19-3-5-1-17-3-7-1-17-3-7-2-16-2-5-1-14-3-10-2-19-2-6-1-15-2-5-2-21-3-7-2-19-2-1v-74l3-5 7-21 9-17 3-6 5-6 3-6 7-8 5-5 3-6 5-5 5-2 10-9 8-5 10-6 17-9 15-3 3-2 9-2zm21 124-11 6-11 11-4 9v36l1 2h2l1 16h15l5-2 5-1 14-1 5-2 5-1 16-1 10-5 1-2v-13l-3-7-1-14-8-17-8-9-11-3-3-2zm1725 4-10 5-9 8-4 4-1 11h-2l-1 2-1 14h-2l-1 2v17l8 2 1 3 23 1v2l4 1 16 1v2l4 1h19l1-1 1-12 3-6v-31l-5-9-9-10-7-7zm-1034 116-1 3h-19l-44 1-1 3h-18l-45 1-1 3h-17l-42 1-1 3h-12l-23 1-1 3h-15l-23 1-2 1v2h-12l-22 1-2 1v2h-15l-23 1-2 1v2h-12l-17 1-4 2-24 2-4 2-24 2-4 2-24 2-4 2-20 2-4 2-24 2-4 2-24 2-4 2-20 2-4 2-20 2-4 2-20 2-4 2-20 2-4 2-21 2-3 2-21 2-7 3-3 1v22l2 2 2 23 3 1 1 23 2 2 2 18 3 1 1 23 3 1 1 23 3 1 1 23 3 1 1 23 3 1 1 23 3 1 1 23 3 1 1 23 2 2 2 18 3 1 1 23 3 1 1 23 3 1 1 23 3 1 1 23 2 1 1 6 1 17 3 1 1 23 2 1 1 6 1 17 3 1 1 19 3 1 1 23 3 1 1 22 3 5 2 5 10-1 3-2 17-1 5-2 1-1 18-1 5-2 1-1 18-1 5-2 1-1 21-1 6-2 5-1 17-1 6-2 5-1 18-2 4-2 19-1 6-2 5-1 30-2 4-2 28-2 4-2 23-1 6-2 5-1 23-1 11-1 2-2 33-1 6-2 1-1 37-1 9-1 2-2 40-1 10-1 2-2 54-1 8-1 2-2 79-1 8-1 1-2h318l2 2 5 1 81 1 5 3 59 1 1 2 9 1 42 1 1 2 3 1 44 1 3 3 37 1 3 3 37 1 3 3 29 1 1 2 10 1 25 1 3 3 29 1 1 2 9 1 18 1 1 2 10 1 17 1 3 3 26 1v2l9 1 14 1 1 2 9 1 14 1 1 2 9 1 15 1v2l2 1 22 1v2l3 1h7l5-5 1-2 1-18 3-6 1-18 3-6 1-18 3-6 1-18 3-6 1-18 3-6 1-18 3-6 1-18 3-6 1-18 3-6 1-18 3-6 1-18 3-6 1-18 3-6 1-18 3-6 1-18 3-6 1-18 3-6 1-18 3-6 1-18 3-6 1-18 3-6 1-18 3-6 1-17 3-8 1-15 3-9 1-14 3-10v-11l-5-2-13-3-43-7-75-13-40-6-49-7-80-12-12-2-7-1-28-2-2-2-23-1-11-1-2-2-27-1-11-1-2-2-23-1-11-1-2-2-28-1-10-1-2-2-57-1-2-3-51-1-8-1-1-2-63-1-1-3zm-508 719-16 1-6 2-22 2-2 2-22 2-5 5v9l3 4 1 21 2 1 1 4 1 19 3 1 1 23 3 1 1 23 3 1 1 23 3 1 1 23 3 1 1 23 3 1 1 19 3 1 1 23 3 1 1 23 3 1 1 23 3 1 1 23 3 1 1 23 3 1 1 23 3 1 1 23 3 1 1 23 3 1 1 19 3 1 1 23 3 1 1 23 3 1 1 23 3 1 1 23 3 1 1 23 3 1 1 23 3 1 1 23 3 1 1 23 3 1 1 19 2 1 2 12h15l5-2 1-1 17-1 6-1 1-2 15-1 5-3 9-1 2-1-1-10-2-3-1-18-3-7-1-15-3-9-1-15-3-9-1-15-2-7-1-1-1-16-2-7-1-1-1-16-2-7-1-1-1-16-3-9-2-16-2-4-1-15-3-9-1-15-2-7-1-1-1-16-2-7-1-1-1-16-2-7-1-1-1-16-2-6-1-2-1-16-2-6-1-2-1-16-2-6-1-2-1-16-2-7-1-1-1-16-3-9-2-16-2-4-1-15-2-7-1-1-1-16-2-6-1-2-1-16-2-6-1-2-1-16-2-6-1-2-1-16-2-6-1-2-2-21-2-4-1-15-2-6-1-2-1-18-2-5-2-7zm1379 1-1 9-3 4-1 23-3 1-1 23-3 1-1 23-3 1-1 23-3 1-1 23-3 1-1 19-3 1-1 23-3 1-1 23-3 1-1 23-3 1-1 23-3 1-1 23-3 1-1 23-3 1-1 23-3 1-1 23-3 1-1 23-3 1-1 19-3 1-1 23-3 1-1 23-3 1-1 23-3 1-1 23-3 1-1 23-3 1-1 23-3 1-1 23-3 1-1 23-3 1-1 23h-2l-1 2-1 15-3 5v13l1 1 14 1 2 3 23 1 1 3 23 1v2l4 1h7l1-1 2-10 2-5 1-17 3-5 1-19 3-6 1-14 3-6 1-17 3-7 1-18 3-6 1-18 3-6 1-18 3-6 1-18 3-6 1-18 3-6 1-18 3-6 1-18 3-6 1-18 3-6 1-14 3-6 1-18 3-6 1-18 3-6 1-18 3-6 1-18 3-6 1-18 3-6 1-18 3-6 1-18 3-6 1-18 3-6 1-14 3-6 1-17 3-7 1-17 3-7 1-18 3-6 1-18 3-7v-10l-5-6-23-2-2-2-22-2-2-2z" fill="#3CA8BB"></path></svg>